<?xml version="1.0" encoding="iso-8859-1"?>
<!-- Generator: Adobe Illustrator 18.1.1, SVG Export Plug-In . SVG Version: 6.00 Build 0)  -->
<svg version="1.1" id="Capa_1" xmlns="http://www.w3.org/2000/svg" xmlns:xlink="http://www.w3.org/1999/xlink" x="0px" y="0px"
	 viewBox="0 0 85.348 85.348" style="enable-background:new 0 0 85.348 85.348;" xml:space="preserve">
<g>
	<g>
		<path style="fill:#010002;" d="M66.373,47.348c-1.389-0.512-2.738-1.106-4.08-1.714c-0.379-0.175-0.669-0.551-1.009-0.823
			c-0.15-0.111-0.34-0.218-0.523-0.251c-0.626-0.093-0.902-0.311-1.041-0.927c-0.2-0.809-0.34-1.614-0.168-2.455
			c0.075-0.372,0.211-0.601,0.558-0.741c0.737-0.286,1.464-0.608,2.194-0.916c0.544-0.229,0.58-0.422,0.376-0.984
			c-0.626-1.779-1.092-3.593-1.245-5.494c-0.093-1.202-0.072-2.43-0.358-3.611h-0.05c-0.025-0.107-0.039-0.222-0.072-0.329
			c-0.526-2.079-2.759-3.207-4.642-3.332c-0.007,0-0.021-0.007-0.043-0.007c-0.14-0.007-0.279,0.014-0.419,0.021
			c-0.787,0.111-1.424,0.601-2.165,0.82c0.036,0.501,0.075,1.002,0.097,1.464c0.025,0.469,0.05,0.938,0.079,1.399
			c0.186,2.28,0.716,4.595,1.668,7.287c0.931,2.62,0,4.814-2.452,5.902c-0.047,0.322-0.097,0.648-0.179,0.966
			c-0.111,0.497-0.369,0.698-0.755,0.823c0.032,0.025,0.072,0.032,0.104,0.061c0.268,0.211,0.54,0.462,0.816,0.719
			c1.568,0.798,3.672,1.725,5.823,2.523c2.724,0.998,4.538,2.462,5.769,4.041c1.854,0,3.697,0,5.554,0
			C69.891,49.485,68.496,48.121,66.373,47.348z"/>
		<path style="fill:#010002;" d="M32.417,43.63c-0.075-0.322-0.129-0.644-0.175-0.97c-2.452-1.095-3.371-3.285-2.459-5.894
			c0.959-2.698,1.489-5.018,1.675-7.304c0.039-0.487,0.061-0.977,0.079-1.482c0.014-0.447,0.036-0.916,0.072-1.396
			c-0.812-0.465-1.721-0.759-2.58-0.816c-0.014,0-0.021-0.007-0.043-0.007c-0.143-0.007-0.279,0.014-0.419,0.021
			c-0.795,0.111-1.435,0.612-2.187,0.827c-0.973,0.29-1.578,1.185-1.943,2.158c-0.523,1.378-0.422,2.845-0.537,4.27
			c-0.154,1.897-0.619,3.711-1.245,5.49c-0.204,0.562-0.168,0.755,0.372,0.984c0.734,0.308,1.46,0.63,2.197,0.916
			c0.358,0.14,0.487,0.372,0.558,0.741c0.172,0.834,0.032,1.646-0.168,2.452c-0.14,0.616-0.415,0.834-1.041,0.934
			c-0.183,0.036-0.372,0.132-0.523,0.251c-0.347,0.265-0.63,0.651-1.009,0.82c-1.342,0.616-2.691,1.202-4.08,1.714
			c-2.122,0.784-3.518,2.147-3.865,4.452c1.85,0,3.701,0,5.554,0c1.238-1.578,3.053-3.042,5.773-4.041
			c2.147-0.798,4.252-1.725,5.844-2.455c0.243-0.329,0.519-0.587,0.812-0.805c0.029-0.021,0.061-0.032,0.082-0.054
			C32.775,44.32,32.532,44.113,32.417,43.63z"/>
		<path style="fill:#010002;" d="M77.45,57.691v-3.16V35.563V16.595c0-1.736-1.424-3.16-3.164-3.16h-63.22
			c-1.739,0-3.167,1.417-3.167,3.16v18.968v18.968v3.16L0,67.175c0,2.613,2.122,4.738,4.738,4.738H80.61
			c2.616,0,4.738-2.126,4.738-4.738L77.45,57.691z M49.002,70.339H36.358c-0.44,0-0.791-0.351-0.791-0.791s0.351-0.791,0.791-0.791
			h12.644c0.433,0,0.791,0.351,0.791,0.791C49.782,69.988,49.435,70.339,49.002,70.339z M29.644,67.179l2.412-2.895h21.237
			l2.412,2.895H29.644z M72.998,52.101c0,1.525-1.242,2.759-2.756,2.759h-7.834c-1.006-1.732-2.602-2.963-4.731-3.754
			c-2.058-0.762-4.083-1.636-6.084-2.552c-0.569-0.258-0.991-0.823-1.514-1.224c-0.222-0.175-0.505-0.336-0.777-0.376
			c-0.931-0.147-1.342-0.483-1.56-1.399c-0.29-1.202-0.497-2.405-0.243-3.654c0.107-0.548,0.308-0.898,0.837-1.106
			c1.106-0.433,2.187-0.909,3.278-1.374c0.82-0.347,0.866-0.633,0.569-1.471c-0.941-2.656-1.632-5.361-1.865-8.206
			c-0.14-1.789-0.097-3.629-0.53-5.39h-0.075c-0.036-0.165-0.057-0.329-0.093-0.49c-0.791-3.106-4.126-4.803-6.932-4.978
			c-0.021,0-0.043-0.007-0.068-0.007c-0.218-0.014-0.419,0.014-0.63,0.029c-1.181,0.168-2.151,0.913-3.271,1.242
			c-1.46,0.429-2.355,1.772-2.906,3.217c-0.773,2.054-0.633,4.248-0.802,6.374c-0.229,2.838-0.923,5.544-1.865,8.199
			c-0.297,0.841-0.243,1.127,0.569,1.474c1.095,0.462,2.169,0.945,3.278,1.371c0.526,0.211,0.73,0.555,0.834,1.109
			c0.251,1.253,0.05,2.455-0.24,3.65c-0.222,0.923-0.633,1.253-1.564,1.399c-0.272,0.05-0.548,0.211-0.777,0.376
			c-0.519,0.397-0.941,0.97-1.51,1.231c-2.008,0.909-4.026,1.789-6.088,2.552c-2.133,0.791-3.718,2.011-4.724,3.747h-7.838
			c-1.514,0-2.759-1.238-2.759-2.756V19.018c0-1.521,1.245-2.759,2.759-2.759h55.143c1.514,0,2.759,1.242,2.759,2.759v33.076h0.007
			V52.101z"/>
	</g>
</g>
<g>
</g>
<g>
</g>
<g>
</g>
<g>
</g>
<g>
</g>
<g>
</g>
<g>
</g>
<g>
</g>
<g>
</g>
<g>
</g>
<g>
</g>
<g>
</g>
<g>
</g>
<g>
</g>
<g>
</g>
</svg>
